<svg width="40" height="40" viewBox="0 0 40 40" fill="none" xmlns="http://www.w3.org/2000/svg">
<path d="M19.9895 39.9999C31.0294 39.9999 39.979 31.0456 39.979 20C39.979 8.95429 31.0294 0 19.9895 0C8.94961 0 0 8.95429 0 20C0 31.0456 8.94961 39.9999 19.9895 39.9999Z" fill="white"/>
<path d="M19.9892 39.9999C16.2736 40.0057 12.6316 38.9712 9.47363 37.0127L22.8645 0.205322C25.2344 0.546275 27.525 1.31342 29.6219 2.46994C39.2991 7.78183 42.8424 19.936 37.5333 29.6202C34.021 36.0286 27.2946 40.0076 19.9892 39.9999Z" fill="#6E7BF2"/>
<path d="M13.2099 19.9127C13.2157 19.5756 13.1809 19.2385 13.1073 18.9111H8.50684V20.7302H11.2079C11.1052 21.3753 10.7432 21.9487 10.2068 22.3207L10.1972 22.3807L11.6513 23.5082L11.7519 23.5179C12.6755 22.6635 13.2099 21.4063 13.2099 19.9127Z" fill="#4285F4"/>
<path d="M8.50573 24.7055C9.82817 24.7055 10.9396 24.2696 11.7508 23.518L10.2057 22.3188C9.70425 22.6559 9.10983 22.8264 8.50767 22.809C7.23751 22.8012 6.11451 21.9798 5.71952 20.771L5.66143 20.7768L4.14924 21.9469L4.12988 22.0011C4.95858 23.6613 6.65277 24.7074 8.50573 24.7055Z" fill="#34A853"/>
<path d="M5.7179 20.7731C5.61141 20.4612 5.55526 20.1338 5.55526 19.8026C5.55719 19.4732 5.61141 19.1458 5.71403 18.832L5.71209 18.7681L4.18054 17.5786L4.1302 17.6019C3.43316 18.987 3.43316 20.6181 4.1302 22.0032L5.7179 20.7731Z" fill="#FBBC05"/>
<path d="M8.5057 16.7977C9.20855 16.7861 9.88622 17.0476 10.3993 17.5281L11.7818 16.1778C10.895 15.3448 9.71971 14.8896 8.50377 14.9031C6.6508 14.9031 4.95661 15.9473 4.12598 17.6056L5.7098 18.8357C6.10866 17.6269 7.23361 16.8055 8.5057 16.7977Z" fill="#EB4335"/>
<path d="M20.9207 20.3488V23.9113H19.7822V15.1105H22.8008C23.5269 15.095 24.2317 15.3681 24.7564 15.8718C25.7845 16.8191 25.8503 18.4232 24.9016 19.4518C24.8551 19.5022 24.8067 19.5506 24.7564 19.5971C24.2297 20.0969 23.5269 20.3662 22.8008 20.3468L20.9207 20.3488ZM20.9207 16.1934V19.2658H22.8279C23.25 19.2794 23.6585 19.1147 23.9528 18.8106C24.5473 18.2391 24.5647 17.2957 23.9935 16.701C23.9896 16.6971 23.9858 16.6932 23.9819 16.6893C23.9722 16.6796 23.9625 16.668 23.9528 16.6603C23.6605 16.3503 23.2519 16.1818 22.8279 16.1934H20.9207ZM28.1932 17.6928C29.0354 17.6928 29.6995 17.9156 30.1855 18.3631C30.6715 18.8087 30.9155 19.4208 30.9155 20.1996V23.9113H29.8273V23.0744H29.7789C29.3084 23.7622 28.6811 24.107 27.8969 24.107C27.2851 24.1264 26.6868 23.9171 26.2221 23.5161C25.7864 23.1519 25.5386 22.6095 25.5483 22.0419C25.5289 21.4607 25.7942 20.9047 26.2589 20.556C26.7332 20.188 27.3664 20.0039 28.1583 20.0039C28.7372 19.9826 29.3123 20.1085 29.8273 20.372V20.1124C29.8293 19.725 29.6569 19.3569 29.3568 19.1128C29.0548 18.8435 28.6637 18.6963 28.259 18.7021C27.651 18.6886 27.0798 18.9908 26.7507 19.5003L25.7497 18.8726C26.2957 18.0861 27.1108 17.6928 28.1932 17.6928ZM26.7197 22.0671C26.7178 22.3596 26.8591 22.6347 27.0953 22.8052C27.347 23.0028 27.6607 23.1054 27.9802 23.0996C28.4604 23.0996 28.9192 22.9098 29.26 22.5708C29.6182 22.2589 29.8254 21.8056 29.8254 21.329C29.4691 21.0481 28.9754 20.9067 28.3403 20.9067C27.9298 20.8912 27.5232 21.0074 27.1844 21.2379C26.8998 21.42 26.7255 21.73 26.7197 22.0671ZM37.1637 17.8904L33.3648 26.5653H32.1895L33.5991 23.5297L31.0994 17.8885H32.3367L34.1432 22.2143H34.1683L35.9245 17.8885L37.1637 17.8904Z" fill="white"/>
</svg>
