<svg width="30" height="30" viewBox="0 0 30 30" fill="none" xmlns="http://www.w3.org/2000/svg">
<mask id="mask0_94_161" style="mask-type:alpha" maskUnits="userSpaceOnUse" x="0" y="0" width="30" height="30">
<rect width="30" height="30" fill="#286AA9"/>
</mask>
<g mask="url(#mask0_94_161)">
<path d="M25.0625 2.50006H16.75C16.4351 2.50006 16.1329 2.62549 15.9103 2.8487C15.6876 3.07191 15.5625 3.37485 15.5625 3.69054V15.5953C15.5625 15.911 15.6876 16.2139 15.9103 16.4371C16.1329 16.6603 16.4351 16.7858 16.75 16.7858H25.0625C25.3774 16.7858 25.6796 16.6603 25.9022 16.4371C26.1249 16.2139 26.25 15.911 26.25 15.5953V3.69054C26.25 3.37485 26.1249 3.07191 25.9022 2.8487C25.6796 2.62549 25.3774 2.50006 25.0625 2.50006ZM23.875 14.4048H17.9375V4.88101H23.875V14.4048Z" fill="#005226"/>
<path d="M12 13.2143H3.6875C3.3726 13.2143 3.07042 13.3397 2.84777 13.5629C2.62512 13.7861 2.5 14.0891 2.5 14.4048V26.3095C2.5 26.6252 2.62512 26.9282 2.84777 27.1514C3.07042 27.3746 3.3726 27.5 3.6875 27.5H12C12.3149 27.5 12.6171 27.3746 12.8397 27.1514C13.0624 26.9282 13.1875 26.6252 13.1875 26.3095V14.4048C13.1875 14.0891 13.0624 13.7861 12.8397 13.5629C12.6171 13.3397 12.3149 13.2143 12 13.2143ZM10.8125 25.1191H4.875V15.5952H10.8125V25.1191Z" fill="#005226"/>
<path d="M12 2.50003H3.6875C3.3726 2.50003 3.07042 2.62546 2.84777 2.84867C2.62512 3.07188 2.5 3.37482 2.5 3.69051V10.8334C2.5 11.1491 2.62512 11.452 2.84777 11.6752C3.07042 11.8984 3.3726 12.0238 3.6875 12.0238H12C12.3149 12.0238 12.6171 11.8984 12.8397 11.6752C13.0624 11.452 13.1875 11.1491 13.1875 10.8334V3.69051C13.1875 3.37482 13.0624 3.07188 12.8397 2.84867C12.6171 2.62546 12.3149 2.50003 12 2.50003ZM10.8125 9.64289H4.875V4.88098H10.8125V9.64289Z" fill="#005226"/>
<path d="M25.0625 17.9761H16.75C16.4351 17.9761 16.1329 18.1016 15.9103 18.3248C15.6876 18.548 15.5625 18.8509 15.5625 19.1666V26.3095C15.5625 26.6252 15.6876 26.9281 15.9103 27.1513C16.1329 27.3745 16.4351 27.4999 16.75 27.4999H25.0625C25.3774 27.4999 25.6796 27.3745 25.9022 27.1513C26.1249 26.9281 26.25 26.6252 26.25 26.3095V19.1666C26.25 18.8509 26.1249 18.548 25.9022 18.3248C25.6796 18.1016 25.3774 17.9761 25.0625 17.9761ZM23.875 25.119H17.9375V20.3571H23.875V25.119Z" fill="#005226"/>
</g>
</svg>
