<svg width="40" height="10" viewBox="0 0 40 10" fill="none" xmlns="http://www.w3.org/2000/svg">
<g clip-path="url(#clip0_64_786)">
<path fill-rule="evenodd" clip-rule="evenodd" d="M3.48989 2.35474H6.22427C7.69237 2.35474 8.24575 3.12061 8.15786 4.24926C8.01789 6.11019 6.92739 7.13807 5.48208 7.13807H4.75291C4.55435 7.13807 4.42088 7.27244 4.3688 7.64194L4.05955 9.77496C4.04002 9.91268 3.96841 9.9933 3.86424 10.0034H2.14549C1.98273 10.0034 1.92739 9.87573 1.96971 9.60029L3.01463 2.75783C3.05695 2.48574 3.20018 2.35474 3.48989 2.35474Z" fill="#009EE3"/>
<path fill-rule="evenodd" clip-rule="evenodd" d="M15.3578 2.22711C16.279 2.22711 17.1319 2.74441 17.0147 4.03094C16.8747 5.55933 16.0804 6.40582 14.8272 6.40918H13.7334C13.5772 6.40918 13.499 6.54018 13.46 6.81227L13.2484 8.19957C13.2158 8.40783 13.1117 8.51196 12.9587 8.51196H11.9398C11.777 8.51196 11.7217 8.40447 11.7575 8.16598L12.5973 2.59997C12.6397 2.32453 12.7373 2.22375 12.9196 2.22375H15.3578V2.22711ZM13.6976 5.20662H14.5277C15.0453 5.18647 15.3903 4.81697 15.4261 4.14851C15.4457 3.73534 15.1755 3.43974 14.7458 3.4431L13.9645 3.44646L13.6976 5.20662ZM19.7816 8.08872C19.876 8.00138 19.9704 7.95772 19.9574 8.06521L19.9248 8.32386C19.9085 8.45822 19.9606 8.52876 20.0811 8.52876H20.986C21.139 8.52876 21.2139 8.46494 21.2497 8.22308L21.8063 4.61207C21.8356 4.43067 21.7901 4.34334 21.6566 4.34334H20.6605C20.5694 4.34334 20.527 4.39372 20.5042 4.53481L20.4684 4.75651C20.4489 4.87071 20.3968 4.89423 20.3513 4.77666C20.182 4.36349 19.7523 4.17874 19.1501 4.19554C17.7536 4.22577 16.8161 5.31747 16.7152 6.71821C16.6371 7.8032 17.389 8.65305 18.3819 8.65305C19.1013 8.64969 19.4235 8.43135 19.7816 8.08872ZM19.0231 7.53447C18.4242 7.53447 18.0042 7.04068 18.0921 6.43269C18.18 5.82805 18.7399 5.33091 19.3421 5.33091C19.9443 5.33091 20.361 5.8247 20.2731 6.43269C20.1852 7.03733 19.6253 7.53447 19.0231 7.53447ZM23.5739 4.3299H22.6559C22.4671 4.3299 22.389 4.47434 22.4509 4.65573L23.5902 8.09544L22.4736 9.73131C22.3792 9.86903 22.4541 9.99332 22.5843 9.99332H23.6162C23.6292 9.99332 23.639 9.99668 23.652 9.99668C23.7627 9.99668 23.8636 9.93622 23.9222 9.8388L27.4248 4.65573C27.5322 4.49786 27.4834 4.3299 27.3044 4.3299H26.3278C26.1618 4.3299 26.0934 4.39708 25.999 4.54152L24.5374 6.72493L23.8864 4.53481C23.8473 4.40044 23.7529 4.3299 23.5739 4.3299Z" fill="#113984"/>
<path fill-rule="evenodd" clip-rule="evenodd" d="M31.0677 2.22711C31.9889 2.22711 32.8418 2.74441 32.7246 4.03094C32.5846 5.55933 31.7904 6.40582 30.5371 6.40918H29.4434C29.2871 6.40918 29.209 6.54018 29.1699 6.81227L28.9583 8.19957C28.9258 8.40783 28.8216 8.51196 28.6686 8.51196H27.6498C27.487 8.51196 27.4317 8.40447 27.4675 8.16598L28.3106 2.59997C28.3529 2.32789 28.4505 2.22375 28.6328 2.22375L31.0677 2.22711ZM29.4108 5.20662H30.2409C30.7585 5.18647 31.1035 4.81697 31.1393 4.14851C31.1589 3.73534 30.8887 3.43974 30.459 3.4431L29.6777 3.44646L29.4108 5.20662ZM35.4916 8.08872C35.586 8.00138 35.6804 7.95772 35.6673 8.06521L35.6348 8.32386C35.6185 8.45822 35.6706 8.52876 35.791 8.52876H36.696C36.849 8.52876 36.9238 8.46494 36.9597 8.22308L37.5163 4.61207C37.5456 4.43067 37.5 4.34334 37.3666 4.34334H36.3737C36.2826 4.34334 36.2402 4.39372 36.2175 4.53481L36.1817 4.75651C36.1621 4.87071 36.11 4.89423 36.0645 4.77666C35.8952 4.36349 35.4655 4.17874 34.8666 4.19554C33.4701 4.22577 32.5326 5.31747 32.4317 6.71821C32.3535 7.8032 33.1055 8.65305 34.0983 8.65305C34.8177 8.65305 35.14 8.43471 35.5013 8.09208L35.4916 8.08872ZM34.7363 7.53447C34.1374 7.53447 33.7175 7.04068 33.8054 6.43269C33.8932 5.82805 34.4531 5.33091 35.0554 5.33091C35.6543 5.33091 36.0742 5.8247 35.9863 6.43269C35.8985 7.03733 35.3353 7.53447 34.7363 7.53447ZM38.9063 8.53212H37.8613C37.8581 8.53212 37.8581 8.53212 37.8548 8.53212C37.7865 8.53212 37.7311 8.47501 37.7311 8.40447C37.7311 8.39776 37.7311 8.39104 37.7311 8.38768L38.6491 2.39171C38.6686 2.30773 38.7402 2.24727 38.8216 2.24727H39.8666C39.8698 2.24727 39.8698 2.24727 39.8731 2.24727C39.9414 2.24727 39.9968 2.30437 39.9968 2.37491C39.9968 2.38163 39.9968 2.38835 39.9968 2.39171L39.0788 8.38768C39.0625 8.47165 38.9909 8.53212 38.9063 8.53212Z" fill="#009EE3"/>
<path fill-rule="evenodd" clip-rule="evenodd" d="M1.78056 0H4.51819C5.28967 0 6.20439 0.0268727 6.81311 0.581122C7.22001 0.953981 7.43486 1.54518 7.38603 2.18341C7.21676 4.33994 5.97001 5.54585 4.29358 5.54585H2.94267C2.71155 5.54585 2.56181 5.70373 2.4967 6.12697L2.1191 8.60262C2.09306 8.76386 2.02795 8.85791 1.90751 8.86799H0.221313C0.0357666 8.86799 -0.0325928 8.72355 0.0162354 8.40107L1.23043 0.470272C1.27926 0.151159 1.44853 0 1.78056 0Z" fill="#113984"/>
<path fill-rule="evenodd" clip-rule="evenodd" d="M2.53613 5.87836L3.01465 2.75777C3.05697 2.48568 3.2002 2.35132 3.48991 2.35132H6.22428C6.67676 2.35132 7.04134 2.42522 7.3278 2.55958C7.05436 4.47762 5.84994 5.54581 4.27441 5.54581H2.93001C2.74772 5.54581 2.61751 5.63986 2.53613 5.87836Z" fill="#172C70"/>
</g>
<defs>
<clipPath id="clip0_64_786">
<rect width="40" height="10" fill="white"/>
</clipPath>
</defs>
</svg>
