<svg width="40" height="12" viewBox="0 0 40 12" fill="none" xmlns="http://www.w3.org/2000/svg">
<g clip-path="url(#clip0_64_798)">
<path d="M39.8662 3.53894C39.5016 2.54517 38.512 1.83178 37.3532 1.83178H37.3271C36.5719 1.83178 35.8916 2.13396 35.4066 2.61682C34.9215 2.13396 34.2412 1.83178 33.486 1.83178H33.4632C32.7992 1.83178 32.1904 2.06542 31.7249 2.4486V2.25545C31.7087 2.05919 31.5426 1.90654 31.3343 1.90654H29.5505C29.3324 1.90654 29.1566 2.07477 29.1566 2.28349V11.5483C29.1566 11.757 29.3324 11.9252 29.5505 11.9252H31.3343C31.5329 11.9252 31.6989 11.7819 31.7217 11.6012V4.95016C31.7217 4.92523 31.7217 4.90654 31.7249 4.88474C31.7542 4.58879 31.9821 4.34268 32.3402 4.31464H32.6689C32.8187 4.3271 32.9456 4.37695 33.0433 4.45483C33.1995 4.57321 33.2842 4.75389 33.2842 4.95327L33.2907 11.5701C33.2907 11.7788 33.4665 11.9502 33.6846 11.9502H35.4684C35.68 11.9502 35.8493 11.7913 35.8591 11.5919V4.94704C35.8591 4.72897 35.9632 4.52959 36.1488 4.41433C36.2399 4.35826 36.3506 4.32087 36.4775 4.30841H36.8063C37.1937 4.33956 37.4248 4.61994 37.4248 4.94704L37.4313 11.5576C37.4313 11.7664 37.6071 11.9346 37.8252 11.9346H39.6091C39.8174 11.9346 39.9899 11.7788 40.0029 11.5826V4.33333C39.9932 3.92523 39.9378 3.7352 39.8662 3.53894ZM27.7959 1.93146H26.777V0.34891C26.777 0.345794 26.777 0.345794 26.777 0.342679C26.777 0.155763 26.6175 0 26.4157 0C26.3929 0 26.3701 0.00311526 26.3473 0.00623053C25.2178 0.302181 25.4424 1.80062 23.3786 1.92835H23.18C23.1507 1.92835 23.1214 1.93146 23.0921 1.93769C22.9196 1.97819 22.7861 2.12773 22.7861 2.30841V4.01558C22.7861 4.2243 22.9619 4.39252 23.18 4.39252H24.2542L24.251 11.6262C24.251 11.8318 24.4268 12 24.6416 12H26.4059C26.6208 12 26.7965 11.8318 26.7965 11.6262V4.39252H27.7959C28.0107 4.39252 28.1898 4.22118 28.1898 4.01558V2.30841C28.1898 2.09969 28.014 1.93146 27.7959 1.93146Z" fill="#00BAF2"/>
<path d="M21.3835 1.93146H19.5996C19.3848 1.93146 19.2057 2.09968 19.2057 2.30841V5.838C19.2025 6.05607 19.0169 6.23053 18.7891 6.23053H18.0436C17.8125 6.23053 17.6237 6.05296 17.6237 5.83177L17.6172 2.30841C17.6172 2.09968 17.4414 1.93146 17.2233 1.93146H15.4395C15.2214 1.93146 15.0456 2.09968 15.0456 2.30841V6.17445C15.0456 7.64174 16.1393 8.69159 17.6758 8.69159C17.6758 8.69159 18.8281 8.69159 18.8639 8.69782C19.0723 8.71962 19.2318 8.88785 19.2318 9.09345C19.2318 9.29595 19.0755 9.46417 18.8672 9.48909C18.8574 9.48909 18.8477 9.49221 18.8379 9.49532L16.2305 9.50467C16.0124 9.50467 15.8366 9.67289 15.8366 9.88162V11.5857C15.8366 11.7944 16.0124 11.9626 16.2305 11.9626H19.1439C20.6803 11.9626 21.7741 10.9159 21.7741 9.44859V2.30841C21.7773 2.09968 21.6016 1.93146 21.3835 1.93146ZM11.2402 1.94081H8.76628C8.54818 1.94081 8.36914 2.09968 8.36914 2.29283V2.95638C8.36914 2.9595 8.36914 2.96573 8.36914 2.96884C8.36914 2.97507 8.36914 2.97819 8.36914 2.98442V3.89408C8.36914 4.09968 8.55794 4.27102 8.78906 4.27102H11.1458C11.3314 4.29906 11.4779 4.4299 11.5007 4.63239V4.85358C11.4811 5.04672 11.3346 5.18691 11.1556 5.20249H9.99024C8.4375 5.20249 7.33398 6.19003 7.33398 7.5732V9.55763C7.33398 10.9346 8.28451 11.9128 9.82422 11.9128H13.0566C13.6361 11.9128 14.1081 11.4922 14.1081 10.9751V4.50155C14.1081 2.93146 13.2617 1.94081 11.2402 1.94081ZM11.5234 9.0623V9.33021C11.5234 9.35202 11.5202 9.37383 11.5169 9.39252C11.5137 9.41121 11.5072 9.4299 11.5007 9.44859C11.4453 9.59813 11.2891 9.70716 11.1035 9.70716H10.3613C10.1302 9.70716 9.94141 9.53894 9.94141 9.33021V9.00934C9.94141 9.00623 9.94141 9 9.94141 8.99688V8.14018V7.87227V7.86915C9.94141 7.66355 10.1302 7.49532 10.3613 7.49532H11.1035C11.3346 7.49532 11.5234 7.66355 11.5234 7.87227V9.0623ZM4.28385 1.92834H0.38737C0.172526 1.92834 0 2.09657 0 2.29906V3.97196C0 3.97507 0 3.97819 0 3.9813C0 3.99065 0 3.99688 0 4.00311V11.5701C0 11.7757 0.159505 11.9439 0.361328 11.947H2.17773C2.39583 11.947 2.57161 11.7788 2.57161 11.5701L2.57812 8.97819H4.28385C5.70964 8.97819 6.70573 8.03115 6.70573 6.65732V4.25233C6.70573 2.88162 5.70964 1.92834 4.28385 1.92834ZM4.1276 5.05607V6.10903C4.1276 6.33021 3.94206 6.5109 3.71094 6.5109H2.58138V4.40187H3.71094C3.94206 4.40187 4.1276 4.57944 4.1276 4.80062V5.05607Z" fill="#20336B"/>
</g>
<defs>
<clipPath id="clip0_64_798">
<rect width="40" height="12" fill="white"/>
</clipPath>
</defs>
</svg>
