<svg width="40" height="40" viewBox="0 0 40 40" fill="none" xmlns="http://www.w3.org/2000/svg">
<g clip-path="url(#clip0_64_795)">
<path d="M24.5967 0.540424C20.7483 -0.368235 16.7169 -0.115351 13.0122 1.2671C9.30758 2.64955 6.09604 5.09948 3.78371 8.3071C1.47137 11.5147 0.162102 15.336 0.021446 19.2877C-0.119209 23.2394 0.915068 27.144 2.9935 30.5079C5.07192 33.8718 8.10116 36.5439 11.6982 38.1863C15.2952 39.8286 19.2984 40.3675 23.2016 39.7347C27.1049 39.102 30.7329 37.326 33.6268 34.6314C36.5208 31.9369 38.5507 28.4447 39.46 24.5964C40.0638 22.0409 40.1583 19.3915 39.7381 16.7995C39.3179 14.2075 38.3913 11.7236 37.0111 9.48978C35.6309 7.25593 33.8241 5.31583 31.694 3.78029C29.564 2.24475 27.1523 1.14383 24.5967 0.540424Z" fill="#5F259F"/>
<path d="M29.0759 14.7819C29.065 14.4018 28.9081 14.0405 28.6377 13.7731C28.3673 13.5057 28.0042 13.3529 27.624 13.3463H24.9417L18.7992 6.29229C18.5118 5.96944 18.1386 5.73497 17.723 5.61624C17.3075 5.4975 16.8667 5.49941 16.4522 5.62172L14.3233 6.29229C14.2476 6.31794 14.1793 6.36153 14.1241 6.41932C14.069 6.47711 14.0287 6.5474 14.0066 6.62417C13.9845 6.70094 13.9814 6.78191 13.9974 6.86017C14.0134 6.93842 14.0482 7.01163 14.0986 7.07354L20.8076 13.4407H10.6449C10.5711 13.4375 10.4974 13.4497 10.4285 13.4765C10.3597 13.5034 10.2972 13.5443 10.2451 13.5967C10.193 13.6491 10.1525 13.7118 10.126 13.7808C10.0995 13.8498 10.0878 13.9236 10.0915 13.9974V15.1139C10.0982 15.4969 10.2533 15.8623 10.5241 16.1331C10.7949 16.4039 11.1604 16.559 11.5433 16.5657H13.1091V21.9303C13.1091 25.9505 15.2315 28.2975 18.8057 28.2975C19.876 28.3304 20.9414 28.1397 21.9339 27.7376V31.3183C21.9309 31.5539 21.975 31.7876 22.0637 32.0058C22.1525 32.224 22.284 32.4223 22.4505 32.5888C22.6171 32.7554 22.8153 32.8869 23.0335 32.9756C23.2517 33.0644 23.4855 33.1085 23.721 33.1054H25.2835C25.4574 33.0933 25.621 33.0188 25.7442 32.8955C25.8674 32.7723 25.942 32.6087 25.9541 32.4349V16.4583H28.516C28.5906 16.4626 28.6653 16.451 28.7352 16.4244C28.805 16.3977 28.8684 16.3566 28.9213 16.3038C28.9742 16.2509 29.0153 16.1875 29.0419 16.1176C29.0685 16.0477 29.0801 15.9731 29.0759 15.8984V14.7819ZM21.9144 24.388C21.2098 24.6962 20.447 24.8483 19.6781 24.834C17.891 24.834 16.999 23.942 16.999 21.9303V16.569H21.9144V24.3815V24.388Z" fill="white"/>
</g>
<defs>
<clipPath id="clip0_64_795">
<rect width="40" height="40" fill="white"/>
</clipPath>
</defs>
</svg>
